# xmcd CD database file
#
# Track frame offsets:
#	150
#	23357
#	43390
#	57207
#	80225
#	95182
#	114065
#	126560
#	140272
#	166912
#	181887
#	205042
#	219792
#	248192
#	263022
#	266440
#
# Disc length: 3751 seconds
#
# Revision: 0
# Processed by: cddbd v1.4PL0 Copyright (c) Steve Scherf et al.
# Submitted via: CDex 1.40Beta9
#
DISCID=db0ea510
DTITLE=Hasse Andersson - Country Classics Disc 1 (Änglahund)
DYEAR=1900
DGENRE=Country
TTITLE0=Änglahund
TTITLE1=Den stora sanna kärleken
TTITLE2=En grön vågare
TTITLE3=Den siste seglatsen
TTITLE4=Frälsningssoldaten
TTITLE5=Corine, Corina
TTITLE6=Min sommarvisa
TTITLE7=Skomakare Anton
TTITLE8=Jag har skrivit mina sånger
TTITLE9=Hej Hasse, hej
TTITLE10=Leka med elden
TTITLE11=Hästhandlaren
TTITLE12=Ann-Christine
TTITLE13=Sången om Rose-Marie
TTITLE14=I en dröm
TTITLE15=Än é halva sträckan kvar
EXTD=ID3G: 2
EXTT0=
EXTT1=
EXTT2=
EXTT3=
EXTT4=
EXTT5=
EXTT6=
EXTT7=
EXTT8=
EXTT9=
EXTT10=
EXTT11=
EXTT12=
EXTT13=
EXTT14=
EXTT15=
PLAYORDER=
